<mxfile host="Electron" modified="2024-03-11T15:32:01.176Z" agent="Mozilla/5.0 (X11; Linux x86_64) AppleWebKit/537.36 (KHTML, like Gecko) draw.io/21.2.8 Chrome/112.0.5615.165 Electron/24.2.0 Safari/537.36" etag="oJEynPs96u2Mu_sCn4nh" version="21.2.8" type="device">
  <diagram name="Page-1" id="O56uFu4BkI42up346PGo">
    <mxGraphModel dx="1403" dy="1155" grid="1" gridSize="10" guides="1" tooltips="1" connect="1" arrows="1" fold="1" page="1" pageScale="1" pageWidth="1100" pageHeight="850" math="0" shadow="0">
      <root>
        <mxCell id="0" />
        <mxCell id="1" parent="0" />
        <mxCell id="gjUOk4JKO-Na-cbrKcIf-1" value="" style="edgeStyle=orthogonalEdgeStyle;rounded=0;orthogonalLoop=1;jettySize=auto;html=1;" edge="1" parent="1" source="gjUOk4JKO-Na-cbrKcIf-2" target="gjUOk4JKO-Na-cbrKcIf-4">
          <mxGeometry relative="1" as="geometry" />
        </mxCell>
        <mxCell id="gjUOk4JKO-Na-cbrKcIf-2" value="Vault Root PKI" style="rounded=0;whiteSpace=wrap;html=1;" vertex="1" parent="1">
          <mxGeometry x="20" y="130" width="120" height="60" as="geometry" />
        </mxCell>
        <mxCell id="gjUOk4JKO-Na-cbrKcIf-3" value="" style="edgeStyle=orthogonalEdgeStyle;rounded=0;orthogonalLoop=1;jettySize=auto;html=1;" edge="1" parent="1" source="gjUOk4JKO-Na-cbrKcIf-4" target="gjUOk4JKO-Na-cbrKcIf-5">
          <mxGeometry relative="1" as="geometry" />
        </mxCell>
        <mxCell id="gjUOk4JKO-Na-cbrKcIf-4" value="Generates new Intermediate CA" style="rounded=0;whiteSpace=wrap;html=1;" vertex="1" parent="1">
          <mxGeometry x="220" y="130" width="120" height="60" as="geometry" />
        </mxCell>
        <mxCell id="gjUOk4JKO-Na-cbrKcIf-5" value="executes distribution process" style="rounded=0;whiteSpace=wrap;html=1;" vertex="1" parent="1">
          <mxGeometry x="420" y="130" width="120" height="60" as="geometry" />
        </mxCell>
        <mxCell id="gjUOk4JKO-Na-cbrKcIf-6" value="" style="edgeStyle=orthogonalEdgeStyle;rounded=0;orthogonalLoop=1;jettySize=auto;html=1;" edge="1" parent="1" source="gjUOk4JKO-Na-cbrKcIf-7" target="gjUOk4JKO-Na-cbrKcIf-10">
          <mxGeometry relative="1" as="geometry" />
        </mxCell>
        <mxCell id="gjUOk4JKO-Na-cbrKcIf-7" value="Vault" style="rounded=0;whiteSpace=wrap;html=1;" vertex="1" parent="1">
          <mxGeometry x="20" y="365" width="120" height="60" as="geometry" />
        </mxCell>
        <mxCell id="gjUOk4JKO-Na-cbrKcIf-8" value="&lt;font style=&quot;font-size: 26px;&quot;&gt;Baremetal&lt;/font&gt;" style="text;html=1;strokeColor=none;fillColor=none;align=center;verticalAlign=middle;whiteSpace=wrap;rounded=0;" vertex="1" parent="1">
          <mxGeometry x="20" y="310" width="200" height="30" as="geometry" />
        </mxCell>
        <mxCell id="gjUOk4JKO-Na-cbrKcIf-9" value="" style="edgeStyle=orthogonalEdgeStyle;rounded=0;orthogonalLoop=1;jettySize=auto;html=1;" edge="1" parent="1" source="gjUOk4JKO-Na-cbrKcIf-10" target="gjUOk4JKO-Na-cbrKcIf-11">
          <mxGeometry relative="1" as="geometry" />
        </mxCell>
        <mxCell id="gjUOk4JKO-Na-cbrKcIf-10" value="Root CA added as package in Artifactory" style="rounded=0;whiteSpace=wrap;html=1;" vertex="1" parent="1">
          <mxGeometry x="220" y="365" width="120" height="60" as="geometry" />
        </mxCell>
        <mxCell id="gjUOk4JKO-Na-cbrKcIf-11" value="Root CA included as part of CICD packages" style="rounded=0;whiteSpace=wrap;html=1;" vertex="1" parent="1">
          <mxGeometry x="420" y="365" width="120" height="60" as="geometry" />
        </mxCell>
        <mxCell id="gjUOk4JKO-Na-cbrKcIf-12" value="" style="edgeStyle=orthogonalEdgeStyle;rounded=0;orthogonalLoop=1;jettySize=auto;html=1;" edge="1" parent="1" source="gjUOk4JKO-Na-cbrKcIf-13" target="gjUOk4JKO-Na-cbrKcIf-17">
          <mxGeometry relative="1" as="geometry" />
        </mxCell>
        <mxCell id="gjUOk4JKO-Na-cbrKcIf-13" value="Root CA published to Github Wiki repo" style="rounded=0;whiteSpace=wrap;html=1;" vertex="1" parent="1">
          <mxGeometry x="20" y="515" width="120" height="60" as="geometry" />
        </mxCell>
        <mxCell id="gjUOk4JKO-Na-cbrKcIf-14" value="&lt;font style=&quot;font-size: 26px;&quot;&gt;k8s&lt;/font&gt;" style="text;html=1;strokeColor=none;fillColor=none;align=center;verticalAlign=middle;whiteSpace=wrap;rounded=0;" vertex="1" parent="1">
          <mxGeometry x="20" y="460" width="200" height="30" as="geometry" />
        </mxCell>
        <mxCell id="gjUOk4JKO-Na-cbrKcIf-15" value="" style="edgeStyle=orthogonalEdgeStyle;rounded=0;orthogonalLoop=1;jettySize=auto;html=1;" edge="1" parent="1" source="gjUOk4JKO-Na-cbrKcIf-17" target="gjUOk4JKO-Na-cbrKcIf-19">
          <mxGeometry relative="1" as="geometry" />
        </mxCell>
        <mxCell id="gjUOk4JKO-Na-cbrKcIf-16" value="&amp;nbsp;FUTURE&amp;nbsp;" style="edgeStyle=orthogonalEdgeStyle;rounded=0;orthogonalLoop=1;jettySize=auto;html=1;" edge="1" parent="1" source="gjUOk4JKO-Na-cbrKcIf-17" target="gjUOk4JKO-Na-cbrKcIf-21">
          <mxGeometry relative="1" as="geometry" />
        </mxCell>
        <mxCell id="gjUOk4JKO-Na-cbrKcIf-17" value="Root CA added as package in Artifactory" style="rounded=0;whiteSpace=wrap;html=1;" vertex="1" parent="1">
          <mxGeometry x="220" y="515" width="120" height="60" as="geometry" />
        </mxCell>
        <mxCell id="gjUOk4JKO-Na-cbrKcIf-18" value="" style="edgeStyle=orthogonalEdgeStyle;rounded=0;orthogonalLoop=1;jettySize=auto;html=1;" edge="1" parent="1" source="gjUOk4JKO-Na-cbrKcIf-19" target="gjUOk4JKO-Na-cbrKcIf-22">
          <mxGeometry relative="1" as="geometry" />
        </mxCell>
        <mxCell id="gjUOk4JKO-Na-cbrKcIf-19" value="Root CA included as part of container build" style="rounded=0;whiteSpace=wrap;html=1;" vertex="1" parent="1">
          <mxGeometry x="420" y="515" width="120" height="60" as="geometry" />
        </mxCell>
        <mxCell id="gjUOk4JKO-Na-cbrKcIf-20" style="edgeStyle=orthogonalEdgeStyle;rounded=0;orthogonalLoop=1;jettySize=auto;html=1;exitX=1;exitY=0.5;exitDx=0;exitDy=0;entryX=0.5;entryY=1;entryDx=0;entryDy=0;" edge="1" parent="1" source="gjUOk4JKO-Na-cbrKcIf-21" target="gjUOk4JKO-Na-cbrKcIf-22">
          <mxGeometry relative="1" as="geometry" />
        </mxCell>
        <mxCell id="gjUOk4JKO-Na-cbrKcIf-21" value="Scratch image rebuilt to include Root CA" style="rounded=0;whiteSpace=wrap;html=1;" vertex="1" parent="1">
          <mxGeometry x="220" y="655" width="120" height="60" as="geometry" />
        </mxCell>
        <mxCell id="gjUOk4JKO-Na-cbrKcIf-22" value="Containers pushed via Razee" style="rounded=0;whiteSpace=wrap;html=1;" vertex="1" parent="1">
          <mxGeometry x="620" y="515" width="120" height="60" as="geometry" />
        </mxCell>
      </root>
    </mxGraphModel>
  </diagram>
</mxfile>
